<?xml version="1.0" standalone="no"?>
<!DOCTYPE svg PUBLIC "-//W3C//DTD SVG 20010904//EN"
 "http://www.w3.org/TR/2001/REC-SVG-20010904/DTD/svg10.dtd">
<svg version="1.0" xmlns="http://www.w3.org/2000/svg"
 width="200.000000pt" height="200.000000pt" viewBox="0 0 200.000000 200.000000"
 preserveAspectRatio="xMidYMid meet">
<metadata>
Created by potrace 1.11, written by Peter Selinger 2001-2013
</metadata>
<g transform="translate(0.000000,200.000000) scale(0.100000,-0.100000)"
fill="#000000" stroke="none">
<path d="M47 1903 c-41 -148 -47 -193 -47 -352 l0 -147 32 -13 c60 -24 133
-41 175 -41 39 0 42 2 53 35 12 35 23 44 35 25 9 -14 25 -12 25 3 0 7 -10 18
-21 25 -18 12 -20 20 -15 55 4 23 20 80 36 127 16 47 41 144 55 215 14 72 28
138 31 148 5 16 -7 17 -164 17 l-169 0 -26 -97z m224 -84 c54 -12 80 -29 44
-29 -43 0 -235 82 -235 100 0 3 30 -8 66 -26 36 -18 93 -38 125 -45z"/>
<path d="M875 1989 c17 -5 39 -11 50 -13 66 -13 156 -39 200 -57 11 -4 39 -13
63 -19 23 -6 42 -15 42 -19 0 -5 -24 -12 -52 -16 -60 -8 -156 -46 -200 -78
-16 -12 -45 -42 -64 -67 -19 -25 -49 -65 -68 -90 -33 -43 -68 -123 -88 -200
-5 -19 -11 -105 -13 -190 -3 -151 -3 -154 13 -118 l17 37 18 -24 c13 -18 14
-26 5 -32 -17 -10 48 -22 124 -22 61 -1 102 12 131 41 27 28 47 23 47 -12 0
-19 5 -30 14 -30 7 0 25 -9 39 -21 15 -11 47 -27 72 -35 48 -17 52 -16 172 43
31 15 34 15 54 -3 17 -16 20 -25 14 -64 l-7 -45 22 20 c23 20 23 20 12 0 -5
-11 -24 -37 -41 -59 -17 -21 -31 -46 -31 -55 0 -10 -8 -26 -19 -37 -10 -11
-29 -43 -42 -72 -27 -58 -49 -72 -120 -72 -34 0 -74 -10 -122 -31 -44 -18 -82
-28 -97 -25 -88 18 -112 26 -148 52 -23 16 -42 34 -42 40 0 14 -26 39 -74 70
-41 27 -59 25 -34 -3 9 -10 21 -35 27 -55 7 -21 17 -40 22 -43 5 -4 9 -17 9
-30 0 -28 -68 -74 -80 -55 -5 8 -10 9 -14 2 -12 -20 19 -25 173 -26 138 -1
160 -3 186 -21 26 -17 27 -20 11 -23 -10 -2 -22 1 -25 7 -5 7 -86 13 -226 16
-304 8 -294 7 -260 35 8 7 15 21 15 32 0 10 5 16 10 13 13 -8 13 6 0 25 -8 12
-11 11 -16 -8 -5 -17 -11 -21 -27 -16 -17 5 -19 3 -13 -20 5 -20 3 -26 -9 -26
-12 0 -15 6 -10 20 4 11 2 20 -4 20 -6 0 -8 7 -5 15 4 10 0 15 -15 15 -12 0
-24 -6 -27 -13 -2 -7 -19 -14 -37 -15 -31 -3 -32 -2 -10 13 21 14 21 17 7 50
-18 44 -18 45 7 45 29 0 21 32 -14 48 -28 14 -35 28 -15 34 8 3 8 9 0 24 -11
19 -11 19 -12 -1 0 -27 -19 -45 -46 -45 -13 0 -26 -5 -29 -10 -10 -16 -25 -12
-19 5 4 8 1 15 -4 15 -7 0 -6 14 3 41 8 23 13 45 10 49 -3 5 5 16 17 24 12 9
17 16 10 16 -9 0 -12 9 -9 28 21 120 30 168 37 177 7 9 19 77 24 131 1 11 6
27 11 35 8 12 6 12 -9 0 -9 -8 -15 -20 -12 -27 2 -6 -4 -14 -15 -17 -19 -5
-27 -27 -9 -27 6 0 10 -5 10 -10 0 -10 -29 3 -60 26 -8 7 -45 21 -82 33 -37
11 -80 27 -95 34 -15 8 -45 19 -66 25 l-37 10 0 -78 0 -79 36 -7 c40 -7 49
-22 40 -60 -6 -24 -10 -25 -41 -20 l-35 7 0 -543 c1 -374 4 -538 11 -526 5 10
15 18 20 18 6 0 1 -16 -11 -35 l-22 -35 86 0 85 0 26 59 c24 53 30 60 56 59
34 -1 36 -15 9 -60 -27 -44 -25 -53 9 -54 22 -1 32 5 40 23 14 31 14 33 -4 33
-22 0 -18 27 5 40 14 8 26 8 40 0 23 -13 25 -37 5 -64 -20 -26 -19 -36 4 -36
20 0 34 26 35 65 1 16 7 20 30 18 44 -3 46 -11 10 -61 -16 -21 -16 -22 13 -22
23 0 32 6 40 28 l11 27 1 -27 1 -28 103 0 102 0 -30 18 c-49 29 -97 46 -126
44 -15 -1 -30 2 -34 8 -3 6 0 7 9 4 9 -3 16 -3 16 0 0 4 -13 12 -30 17 -16 6
-30 15 -30 20 0 17 40 49 62 49 59 0 309 -93 365 -136 l32 -24 463 2 463 3
-42 44 c-24 24 -43 49 -43 56 0 29 -103 85 -155 85 -8 0 -15 5 -15 11 0 9 21
10 73 5 130 -11 168 -33 240 -144 25 -38 48 -62 59 -62 17 0 18 18 18 283 0
203 -3 278 -11 267 -8 -12 -9 -9 -4 10 4 14 9 75 10 135 2 61 1 100 -1 88 -3
-13 -10 -23 -16 -23 -5 0 -8 -6 -5 -13 5 -12 -19 -97 -34 -122 -4 -5 -12 -34
-19 -63 -6 -28 -19 -57 -29 -62 -13 -8 -13 -11 -3 -18 11 -8 11 -10 0 -14 -23
-9 -51 18 -43 42 6 20 5 21 -15 10 -30 -16 -35 -36 -16 -65 20 -31 20 -45 0
-45 -8 0 -12 5 -9 10 6 9 0 11 -22 9 -5 0 -7 -7 -5 -15 2 -8 -2 -14 -8 -14 -5
0 -10 7 -10 16 0 8 -5 12 -11 9 -6 -4 -8 -13 -5 -20 2 -7 -2 -16 -10 -19 -9
-3 -12 -11 -8 -17 5 -8 3 -9 -7 -4 -7 5 -26 8 -41 7 -27 -2 -39 13 -17 20 15
5 0 36 -22 43 -11 4 -19 15 -19 27 l0 21 -19 -21 c-10 -12 -22 -18 -26 -14 -5
4 -6 0 -2 -9 8 -23 -39 -45 -47 -22 -9 21 3 31 14 13 8 -12 10 -10 10 9 0 15
-5 21 -13 18 -16 -6 -38 25 -29 39 10 14 32 16 32 3 0 -8 5 -8 15 1 24 20 18
28 -22 25 -22 -1 -37 -7 -36 -13 5 -21 -22 -2 -46 33 -13 19 -38 40 -57 47
-39 14 -43 29 -14 58 24 24 14 27 -12 3 -27 -25 -32 -9 -6 20 13 14 36 52 52
86 17 34 36 61 43 61 8 0 12 4 9 9 -11 18 5 39 34 45 23 4 37 18 61 61 17 30
35 58 40 61 5 3 9 21 9 40 0 30 -3 34 -27 34 l-28 0 27 24 c16 15 37 57 54
108 24 68 29 100 29 175 l0 92 -51 73 c-28 40 -66 83 -85 96 -22 15 -41 41
-54 72 -22 52 -46 84 -85 113 -20 14 -21 17 -5 11 11 -3 42 -8 70 -11 27 -2
54 -8 60 -13 5 -4 28 -11 50 -14 40 -7 122 -29 250 -68 39 -12 88 -25 110 -28
22 -4 48 -11 58 -15 15 -6 17 0 17 72 l0 80 -67 18 c-38 10 -152 47 -255 82
l-188 63 -322 -1 c-213 0 -313 -4 -293 -10z m410 -537 c17 -12 14 -42 -4 -42
-13 0 -14 -2 -1 -9 8 -6 17 -8 20 -6 14 8 48 -64 53 -112 l6 -53 -37 0 c-20 0
-64 5 -97 11 -33 6 -79 14 -102 18 -50 9 -79 29 -63 45 6 6 37 16 70 22 105
22 157 58 115 81 -13 8 -13 11 1 31 16 23 23 26 39 14z m-982 -702 c-6 -22
-18 -26 -29 -9 -3 6 0 15 7 20 22 14 28 11 22 -11z m7 -40 c0 -5 -4 -10 -10
-10 -5 0 -10 5 -10 10 0 6 5 10 10 10 6 0 10 -4 10 -10z m980 -65 c-1 -12
-120 -60 -170 -69 -35 -7 -35 -6 -10 8 14 8 52 21 85 30 33 8 64 22 70 31 11
16 27 16 25 0z m-869 -76 c8 -17 8 -20 -1 -14 -7 4 -16 2 -21 -6 -9 -16 -14
-12 -23 19 -6 18 -3 22 13 22 11 0 25 -10 32 -21z m54 1 c3 -5 1 -10 -4 -10
-6 0 -11 5 -11 10 0 6 2 10 4 10 3 0 8 -4 11 -10z m839 -67 c-30 -22 -37 -14
-12 15 17 22 24 25 27 14 2 -9 -5 -22 -15 -29z m-419 -33 c3 -5 -1 -10 -9 -10
-9 0 -16 5 -16 10 0 6 4 10 9 10 6 0 13 -4 16 -10z m962 -24 c0 -8 -6 -12 -14
-9 -7 3 -13 9 -13 14 0 5 6 9 13 9 8 0 14 -6 14 -14z m-1479 -18 c-3 -8 -26
-14 -53 -16 -38 -3 -58 -11 -93 -40 -32 -26 -42 -31 -34 -16 11 21 65 66 92
77 30 11 92 8 88 -5z m-228 -155 c0 -5 -10 -19 -21 -33 l-20 -25 16 33 c15 30
25 41 25 25z m-50 -82 c-5 -11 -15 -23 -22 -27 -7 -5 -8 -2 -3 7 21 37 44 55
25 20z m-48 -93 c-7 -7 -12 -8 -12 -2 0 14 12 26 19 19 2 -3 -1 -11 -7 -17z"/>
<path d="M765 879 c-14 -5 -4 -8 33 -8 28 -1 52 3 52 7 0 11 -60 12 -85 1z"/>
<path d="M294 855 c-16 -25 -11 -49 9 -42 10 3 20 67 11 67 -2 0 -11 -11 -20
-25z"/>
<path d="M884 806 c-3 -8 -17 -17 -31 -21 -33 -8 -27 -12 38 -29 46 -12 57
-12 81 0 15 8 35 14 44 14 14 0 14 -3 4 -15 -16 -19 -12 -23 31 -31 23 -4 30
-3 20 4 -9 7 -10 12 -2 16 15 10 14 26 -3 26 -7 0 -19 7 -26 15 -15 18 -51 20
-67 4 -9 -9 -19 -6 -39 10 -31 25 -43 26 -50 7z"/>
<path d="M1187 790 c23 -5 52 -14 65 -21 23 -12 23 -12 4 10 -15 16 -30 21
-65 20 l-46 -1 42 -8z"/>
<path d="M527 783 c-13 -13 -7 -21 13 -16 11 3 20 0 20 -6 0 -6 5 -11 12 -11
6 0 3 9 -7 20 -19 21 -28 24 -38 13z"/>
<path d="M500 740 c0 -5 5 -10 10 -10 6 0 10 5 10 10 0 6 -4 10 -10 10 -5 0
-10 -4 -10 -10z"/>
<path d="M902 718 c26 -13 48 -28 48 -35 0 -6 23 -16 50 -22 65 -14 71 -13 40
4 -14 8 -19 14 -12 15 6 0 12 4 12 9 0 4 -30 16 -67 25 -110 27 -120 27 -71 4z"/>
<path d="M550 716 c0 -8 6 -16 13 -19 8 -3 14 1 14 9 0 7 -6 15 -14 18 -7 3
-13 -1 -13 -8z"/>
<path d="M480 700 c-8 -5 -12 -12 -9 -15 4 -3 12 1 19 10 14 17 11 19 -10 5z"/>
<path d="M1068 683 c12 -2 30 -2 40 0 9 3 -1 5 -23 4 -22 0 -30 -2 -17 -4z"/>
<path d="M650 651 c0 -19 12 -41 20 -36 10 6 1 45 -11 45 -5 0 -9 -4 -9 -9z"/>
<path d="M606 611 c-4 -6 -13 -8 -20 -5 -7 3 -16 -2 -20 -12 -5 -14 -2 -15 21
-10 16 4 34 7 41 8 15 2 11 20 -5 25 -6 2 -14 0 -17 -6z"/>
<path d="M1460 551 c0 -5 5 -13 10 -16 6 -3 10 -2 10 4 0 5 -4 13 -10 16 -5 3
-10 2 -10 -4z"/>
<path d="M1891 552 c-1 -7 -5 -10 -11 -7 -5 3 -10 -1 -10 -9 0 -8 5 -18 12
-22 6 -4 8 -3 4 4 -3 5 -1 12 5 14 7 2 9 11 6 19 -4 10 -6 10 -6 1z"/>
<path d="M1577 539 c7 -7 15 -10 18 -7 3 3 -2 9 -12 12 -14 6 -15 5 -6 -5z"/>
<path d="M1765 520 c3 -5 8 -10 11 -10 2 0 4 5 4 10 0 6 -5 10 -11 10 -5 0 -7
-4 -4 -10z"/>
<path d="M1776 471 c10 -10 21 -17 23 -15 6 6 -20 34 -32 34 -6 0 -2 -8 9 -19z"/>
<path d="M1640 470 c0 -5 5 -10 10 -10 6 0 10 5 10 10 0 6 -4 10 -10 10 -5 0
-10 -4 -10 -10z"/>
<path d="M1710 470 c0 -5 7 -10 15 -10 12 0 13 -3 3 -19 -7 -11 -16 -17 -21
-14 -9 5 -27 -14 -27 -29 0 -5 9 -8 20 -8 11 0 20 5 20 11 0 6 9 24 20 39 17
25 18 29 4 34 -23 9 -34 7 -34 -4z"/>
<path d="M1685 450 c-3 -5 -1 -10 4 -10 6 0 11 5 11 10 0 6 -2 10 -4 10 -3 0
-8 -4 -11 -10z"/>
<path d="M1825 140 c10 -11 20 -20 22 -20 2 0 -2 9 -9 20 -7 11 -17 20 -22 20
-5 0 -1 -9 9 -20z"/>
<path d="M1910 20 c6 -11 13 -20 16 -20 2 0 0 9 -6 20 -6 11 -13 20 -16 20 -2
0 0 -9 6 -20z"/>
</g>
</svg>
